<svg width="263" height="34" viewBox="0 0 263 34" fill="none" xmlns="http://www.w3.org/2000/svg">
<path d="M13.644 33L5.90967 7.79736H5.71191C5.74121 8.39795 5.78516 9.30615 5.84375 10.522C5.91699 11.7231 5.98291 13.0049 6.0415 14.3672C6.1001 15.7295 6.12939 16.96 6.12939 18.0586V33H0.0429688V0.875977H9.31543L16.918 25.4414H17.0498L25.1138 0.875977H34.3862V33H28.0361V17.7949C28.0361 16.7842 28.0508 15.6196 28.0801 14.3013C28.124 12.9829 28.1753 11.7305 28.2339 10.5439C28.2925 9.34277 28.3364 8.44189 28.3657 7.84131H28.168L19.8843 33H13.644ZM52.0962 7.97314C54.3667 7.97314 56.3223 8.4126 57.9629 9.2915C59.6035 10.1558 60.8706 11.4155 61.7642 13.0708C62.6577 14.7261 63.1045 16.7476 63.1045 19.1353V22.3872H47.2622C47.3354 24.2769 47.8994 25.7637 48.9541 26.8477C50.0234 27.917 51.5029 28.4517 53.3926 28.4517C54.96 28.4517 56.3955 28.2905 57.6992 27.9683C59.0029 27.646 60.3433 27.1626 61.7202 26.5181V31.7036C60.5044 32.3042 59.23 32.7437 57.897 33.022C56.5786 33.3003 54.9746 33.4395 53.085 33.4395C50.624 33.4395 48.4414 32.9854 46.5371 32.0771C44.6475 31.1689 43.1606 29.7847 42.0767 27.9243C41.0073 26.064 40.4727 23.7202 40.4727 20.8931C40.4727 18.022 40.9561 15.6343 41.9229 13.73C42.9043 11.811 44.2666 10.3755 46.0098 9.42334C47.7529 8.45654 49.7817 7.97314 52.0962 7.97314ZM52.1401 12.7412C50.8364 12.7412 49.7524 13.1587 48.8882 13.9937C48.0386 14.8286 47.5479 16.1396 47.416 17.9268H56.8203C56.8057 16.9307 56.6226 16.0444 56.271 15.2681C55.9341 14.4917 55.4214 13.8765 54.7329 13.4224C54.0591 12.9683 53.1948 12.7412 52.1401 12.7412ZM78.6831 7.97314C80.9536 7.97314 82.9092 8.4126 84.5498 9.2915C86.1904 10.1558 87.4575 11.4155 88.3511 13.0708C89.2446 14.7261 89.6914 16.7476 89.6914 19.1353V22.3872H73.8491C73.9224 24.2769 74.4863 25.7637 75.541 26.8477C76.6104 27.917 78.0898 28.4517 79.9795 28.4517C81.5469 28.4517 82.9824 28.2905 84.2861 27.9683C85.5898 27.646 86.9302 27.1626 88.3071 26.5181V31.7036C87.0913 32.3042 85.8169 32.7437 84.4839 33.022C83.1655 33.3003 81.5615 33.4395 79.6719 33.4395C77.2109 33.4395 75.0283 32.9854 73.124 32.0771C71.2344 31.1689 69.7476 29.7847 68.6636 27.9243C67.5942 26.064 67.0596 23.7202 67.0596 20.8931C67.0596 18.022 67.543 15.6343 68.5098 13.73C69.4912 11.811 70.8535 10.3755 72.5967 9.42334C74.3398 8.45654 76.3687 7.97314 78.6831 7.97314ZM78.7271 12.7412C77.4233 12.7412 76.3394 13.1587 75.4751 13.9937C74.6255 14.8286 74.1348 16.1396 74.0029 17.9268H83.4072C83.3926 16.9307 83.2095 16.0444 82.8579 15.2681C82.521 14.4917 82.0083 13.8765 81.3198 13.4224C80.646 12.9683 79.7817 12.7412 78.7271 12.7412ZM105.49 28.1001C106.222 28.1001 106.933 28.0269 107.621 27.8804C108.324 27.7339 109.02 27.5508 109.708 27.3311V32.3188C108.991 32.6411 108.097 32.9048 107.028 33.1099C105.973 33.3296 104.816 33.4395 103.556 33.4395C102.091 33.4395 100.773 33.2051 99.6011 32.7363C98.4438 32.2529 97.5283 31.4253 96.8545 30.2534C96.1953 29.0669 95.8657 27.4189 95.8657 25.3096V13.4663H92.6577V10.6318L96.3491 8.39062L98.2827 3.20508H102.567V8.43457H109.445V13.4663H102.567V25.3096C102.567 26.2471 102.831 26.9502 103.358 27.4189C103.9 27.873 104.611 28.1001 105.49 28.1001ZM124.76 7.9292C128.056 7.9292 130.583 8.64697 132.34 10.0825C134.098 11.5181 134.977 13.7007 134.977 16.6304V33H130.297L129 29.6602H128.825C128.122 30.5391 127.404 31.2568 126.671 31.8135C125.939 32.3701 125.097 32.7803 124.145 33.0439C123.192 33.3076 122.035 33.4395 120.673 33.4395C119.223 33.4395 117.919 33.1611 116.762 32.6045C115.619 32.0479 114.718 31.1982 114.059 30.0557C113.4 28.8984 113.07 27.4336 113.07 25.6611C113.07 23.0537 113.986 21.1348 115.817 19.9043C117.648 18.6592 120.395 17.9707 124.057 17.8389L128.319 17.707V16.6304C128.319 15.3413 127.982 14.3965 127.309 13.7959C126.635 13.1953 125.697 12.895 124.496 12.895C123.31 12.895 122.145 13.0635 121.002 13.4004C119.86 13.7373 118.717 14.1621 117.575 14.6748L115.355 10.1484C116.659 9.45996 118.117 8.91797 119.728 8.52246C121.354 8.12695 123.031 7.9292 124.76 7.9292ZM128.319 21.6182L125.727 21.7061C123.559 21.7646 122.05 22.1528 121.2 22.8706C120.365 23.5884 119.948 24.5332 119.948 25.7051C119.948 26.7305 120.248 27.4629 120.849 27.9023C121.449 28.3271 122.233 28.5396 123.2 28.5396C124.635 28.5396 125.844 28.1147 126.825 27.2651C127.821 26.4155 128.319 25.207 128.319 23.6396V21.6182ZM155.851 7.97314C158.473 7.97314 160.583 8.69092 162.179 10.1265C163.776 11.5474 164.574 13.8325 164.574 16.9819V33H157.873V18.6519C157.873 16.894 157.55 15.5684 156.906 14.6748C156.276 13.7812 155.28 13.3345 153.917 13.3345C151.867 13.3345 150.468 14.0303 149.721 15.4219C148.974 16.8135 148.6 18.8203 148.6 21.4424V33H141.898V8.43457H147.018L147.919 11.5767H148.292C148.82 10.7271 149.472 10.0386 150.248 9.51123C151.039 8.98389 151.911 8.5957 152.863 8.34668C153.83 8.09766 154.826 7.97314 155.851 7.97314ZM181.537 7.9292C184.833 7.9292 187.36 8.64697 189.118 10.0825C190.875 11.5181 191.754 13.7007 191.754 16.6304V33H187.074L185.778 29.6602H185.602C184.899 30.5391 184.181 31.2568 183.449 31.8135C182.716 32.3701 181.874 32.7803 180.922 33.0439C179.97 33.3076 178.812 33.4395 177.45 33.4395C176 33.4395 174.696 33.1611 173.539 32.6045C172.396 32.0479 171.496 31.1982 170.836 30.0557C170.177 28.8984 169.848 27.4336 169.848 25.6611C169.848 23.0537 170.763 21.1348 172.594 19.9043C174.425 18.6592 177.172 17.9707 180.834 17.8389L185.097 17.707V16.6304C185.097 15.3413 184.76 14.3965 184.086 13.7959C183.412 13.1953 182.475 12.895 181.273 12.895C180.087 12.895 178.922 13.0635 177.78 13.4004C176.637 13.7373 175.495 14.1621 174.352 14.6748L172.133 10.1484C173.437 9.45996 174.894 8.91797 176.505 8.52246C178.131 8.12695 179.809 7.9292 181.537 7.9292ZM185.097 21.6182L182.504 21.7061C180.336 21.7646 178.827 22.1528 177.978 22.8706C177.143 23.5884 176.725 24.5332 176.725 25.7051C176.725 26.7305 177.025 27.4629 177.626 27.9023C178.227 28.3271 179.01 28.5396 179.977 28.5396C181.413 28.5396 182.621 28.1147 183.603 27.2651C184.599 26.4155 185.097 25.207 185.097 23.6396V21.6182ZM209.025 28.1001C209.757 28.1001 210.468 28.0269 211.156 27.8804C211.859 27.7339 212.555 27.5508 213.244 27.3311V32.3188C212.526 32.6411 211.632 32.9048 210.563 33.1099C209.508 33.3296 208.351 33.4395 207.091 33.4395C205.626 33.4395 204.308 33.2051 203.136 32.7363C201.979 32.2529 201.063 31.4253 200.39 30.2534C199.73 29.0669 199.401 27.4189 199.401 25.3096V13.4663H196.193V10.6318L199.884 8.39062L201.818 3.20508H206.103V8.43457H212.98V13.4663H206.103V25.3096C206.103 26.2471 206.366 26.9502 206.894 27.4189C207.436 27.873 208.146 28.1001 209.025 28.1001ZM240.556 20.6733C240.556 22.7241 240.277 24.5405 239.721 26.1226C239.179 27.7046 238.38 29.0449 237.326 30.1436C236.286 31.2275 235.026 32.0479 233.546 32.6045C232.082 33.1611 230.426 33.4395 228.581 33.4395C226.852 33.4395 225.263 33.1611 223.812 32.6045C222.377 32.0479 221.125 31.2275 220.055 30.1436C219 29.0449 218.18 27.7046 217.594 26.1226C217.023 24.5405 216.737 22.7241 216.737 20.6733C216.737 17.9487 217.221 15.6416 218.188 13.752C219.154 11.8623 220.531 10.4268 222.318 9.44531C224.105 8.46387 226.237 7.97314 228.712 7.97314C231.012 7.97314 233.048 8.46387 234.821 9.44531C236.608 10.4268 238.007 11.8623 239.018 13.752C240.043 15.6416 240.556 17.9487 240.556 20.6733ZM223.571 20.6733C223.571 22.2847 223.747 23.6396 224.098 24.7383C224.45 25.8369 224.999 26.6646 225.746 27.2212C226.493 27.7778 227.467 28.0562 228.668 28.0562C229.855 28.0562 230.814 27.7778 231.547 27.2212C232.294 26.6646 232.836 25.8369 233.173 24.7383C233.524 23.6396 233.7 22.2847 233.7 20.6733C233.7 19.0474 233.524 17.6997 233.173 16.6304C232.836 15.5464 232.294 14.7334 231.547 14.1914C230.8 13.6494 229.826 13.3784 228.625 13.3784C226.852 13.3784 225.563 13.9863 224.757 15.2021C223.966 16.418 223.571 18.2417 223.571 20.6733ZM259.804 7.97314C260.141 7.97314 260.529 7.99512 260.968 8.03906C261.422 8.06836 261.789 8.1123 262.067 8.1709L261.562 14.4551C261.342 14.3818 261.027 14.3306 260.617 14.3013C260.221 14.2573 259.877 14.2354 259.584 14.2354C258.72 14.2354 257.877 14.3452 257.057 14.5649C256.251 14.7847 255.526 15.1436 254.882 15.6416C254.237 16.125 253.725 16.7695 253.344 17.5752C252.978 18.3662 252.794 19.3403 252.794 20.4976V33H246.093V8.43457H251.168L252.157 12.5654H252.487C252.97 11.7305 253.571 10.9688 254.289 10.2803C255.021 9.57715 255.849 9.02051 256.771 8.61035C257.709 8.18555 258.72 7.97314 259.804 7.97314Z" fill="#006BFF"/>
</svg>
